<svg width="107" height="17" viewBox="0 0 107 17" fill="none" xmlns="http://www.w3.org/2000/svg">
<path d="M8.8 1.2439L11.169 5.94565L16.4667 6.70424L12.6333 10.362L13.538 15.5294L8.8 13.0884L4.062 15.5294L4.96666 10.362L1.13333 6.70424L6.431 5.94565L8.8 1.2439Z" fill="#1E1D1D" stroke="#1E1D1D" stroke-width="2" stroke-linecap="round" stroke-linejoin="round"/>
<path d="M53.2667 1.2439L55.6357 5.94565L60.9333 6.70424L57.1 10.362L58.0047 15.5294L53.2667 13.0884L48.5287 15.5294L49.4333 10.362L45.6 6.70424L50.8977 5.94565L53.2667 1.2439Z" fill="#1E1D1D" stroke="#1E1D1D" stroke-width="2" stroke-linecap="round" stroke-linejoin="round"/>
<path d="M75.5 1.2439L77.869 5.94565L83.1667 6.70424L79.3333 10.362L80.238 15.5294L75.5 13.0884L70.762 15.5294L71.6667 10.362L67.8333 6.70424L73.131 5.94565L75.5 1.2439Z" fill="#1E1D1D" stroke="#1E1D1D" stroke-width="2" stroke-linecap="round" stroke-linejoin="round"/>
<path d="M97.7333 1.2439L100.102 5.94565L105.4 6.70424L101.567 10.362L102.471 15.5294L97.7333 13.0884L92.9953 15.5294L93.9 10.362L90.0667 6.70424L95.3643 5.94565L97.7333 1.2439Z" fill="#1E1D1D" stroke="#1E1D1D" stroke-width="2" stroke-linecap="round" stroke-linejoin="round"/>
<path d="M31.0333 1.2439L33.4023 5.94565L38.7 6.70424L34.8667 10.362L35.7713 15.5294L31.0333 13.0884L26.2953 15.5294L27.2 10.362L23.3667 6.70424L28.6643 5.94565L31.0333 1.2439Z" fill="#1E1D1D" stroke="#1E1D1D" stroke-width="2" stroke-linecap="round" stroke-linejoin="round"/>
</svg>
